<svg width="175" height="175" viewBox="0 0 175 175" fill="none" xmlns="http://www.w3.org/2000/svg">
<path fill-rule="evenodd" clip-rule="evenodd" d="M82.8247 0.517013C32.4289 3.19735 -5.15212 48.2437 1.16581 98.397C7.06012 145.186 49.4847 178.828 96.4737 173.977C136.352 169.86 168.364 138.871 173.719 99.1999C174.894 90.496 174.678 80.2377 173.144 71.8773C165.218 28.6896 126.613 -1.81217 82.8247 0.517013ZM94.7533 2.84709C143.776 7.467 178.414 51.1432 171.485 99.6012C166.271 136.067 137.685 165.209 101.291 171.162C50.2076 179.518 3.62919 140.702 2.68893 88.9921C1.86094 43.4515 36.6337 5.75914 82.3085 2.68606C84.5715 2.53397 92.5226 2.63686 94.7533 2.84709ZM82.3371 7.11943L81.6778 7.16685V9.26477C81.6778 10.4184 81.7118 12.6094 81.7534 14.1334L81.8294 16.905L83.3306 16.9018C88.2623 16.8916 89.8172 15.7097 89.8172 11.9728C89.8172 7.95681 87.9062 6.71685 82.3371 7.11943ZM92.9077 7.18429C92.6961 7.77073 91.7366 16.7484 91.8793 16.811C92.0632 16.8916 98.9009 17.733 98.942 17.6797C98.9546 17.6636 98.9961 17.4104 99.0346 17.1174C99.1174 16.4832 99.4775 16.591 95.7857 16.1459C94.366 15.975 93.1917 15.826 93.1756 15.8149C93.0338 15.7178 93.5536 12.5472 93.7106 12.5512C93.8108 12.5539 95.0137 12.6988 96.3838 12.8737C99.1335 13.2244 98.997 13.2468 98.997 12.4457V12.0194L96.3928 11.7044C94.96 11.5318 93.7661 11.3681 93.7393 11.3412C93.6842 11.2858 94.0162 8.5428 94.0868 8.47212C94.1119 8.44707 95.3688 8.57859 96.8803 8.76512C98.3914 8.95165 99.6609 9.10419 99.7007 9.10463C99.7875 9.10553 99.9552 8.07535 99.8801 8.00065C99.7714 7.89195 92.9412 7.09215 92.9077 7.18429ZM74.5667 8.10532C74.2196 8.16392 73.9213 8.2252 73.9038 8.24131C73.8577 8.2838 71.7003 18.4357 71.7312 18.4652C71.7607 18.4943 73.0043 18.2747 73.0468 18.2331C73.0624 18.2179 73.2096 17.5384 73.3742 16.7234C73.7334 14.9412 73.3782 15.2257 75.7123 14.85L77.6823 14.5333L77.8317 14.7726C77.9136 14.9046 78.2759 15.5196 78.6369 16.1396L79.2931 17.2673L79.8836 17.1877C80.2079 17.1443 80.5322 17.0758 80.6038 17.0356C80.7151 16.9725 75.5857 8.3254 75.2887 8.07535C75.2386 8.03331 74.9134 8.04672 74.5667 8.10532ZM86.2655 8.31154C89.0223 8.94181 89.3014 14.6049 86.6184 15.4615C85.8481 15.7075 83.1879 15.8341 83.1222 15.6283C83.0949 15.542 83.0399 13.8619 82.9996 11.895L82.9267 8.31914L83.2483 8.27083C83.9041 8.17197 85.7658 8.19702 86.2655 8.31154ZM76.39 12.2408C76.785 12.9243 77.0914 13.5 77.0704 13.5192C77.0163 13.5707 73.9656 14.0484 73.9307 14.0113C73.915 13.9938 74.076 13.1028 74.2894 12.0301C74.5023 10.9579 74.6786 9.87402 74.6808 9.62173L74.6853 9.16278L75.1787 10.0802C75.4498 10.5848 75.995 11.5573 76.39 12.2408ZM64.5383 10.3746C63.8691 10.5414 60.6511 11.53 60.5039 11.6136C60.4055 11.6696 62.7915 19.8219 63.2156 20.8798C63.2818 21.0449 66.8885 19.9557 67.7666 19.5057C69.3125 18.713 69.8113 17.8206 69.797 15.8726C69.7697 12.1786 67.3689 9.66825 64.5383 10.3746ZM108.278 10.5146C104.967 11.9102 104.06 17.4744 106.833 19.3849C108.999 20.8776 111.884 20.4759 113.024 18.5225L113.231 18.1686L112.7 17.8318L112.169 17.495L111.461 18.2147C110.012 19.6886 107.742 19.3312 106.798 17.4811C106.184 16.2778 106.576 14.018 107.654 12.5494C109.166 10.49 112.507 11.2035 112.857 13.6601L112.935 14.2094L113.61 14.2443L114.285 14.2792L114.213 13.6718C113.912 11.1234 110.783 9.45936 108.278 10.5146ZM66.4139 11.7389C68.1517 12.6255 69.143 16.1316 68.1008 17.7066C67.7013 18.3104 64.4797 19.7025 64.1787 19.4015C63.9286 19.1514 61.9743 12.3213 62.1505 12.3128C62.1979 12.3106 62.8045 12.1325 63.4983 11.9169C64.9709 11.4589 65.7698 11.4101 66.4139 11.7389ZM118.478 14.3056C115.057 15.58 113.753 20.5466 116.238 22.8369C119.696 26.0245 124.891 23.18 124.537 18.2934C124.335 15.5254 121.035 13.3528 118.478 14.3056ZM52.0286 15.2038C51.7763 15.3353 51.554 15.4566 51.5343 15.4731C51.4918 15.5098 55.6232 24.0348 55.7454 24.1618C55.8755 24.2983 56.9223 23.7941 56.8816 23.6152C56.7925 23.2287 52.704 14.9618 52.6021 14.9632C52.539 14.9645 52.2809 15.0728 52.0286 15.2038ZM121.158 15.5263C123.607 16.4429 123.968 19.5594 121.898 21.9109C119.858 24.228 116.259 22.8574 116.259 19.7638C116.259 16.8316 118.792 14.6402 121.158 15.5263ZM47.8994 17.3187C47.521 17.546 47.2016 17.7406 47.1895 17.7513C47.1774 17.762 47.5751 19.6775 48.073 22.0075C48.5708 24.3381 48.9676 26.253 48.9551 26.2633C48.9421 26.2736 47.6672 25.1996 46.1218 23.8764C44.5763 22.5537 43.0925 21.2891 42.8246 21.0668L42.3379 20.6629L41.5345 21.1402C41.0926 21.4028 40.7311 21.6662 40.7311 21.7253C40.7311 21.8027 45.5648 29.9 45.7062 30.0593C45.7169 30.0713 45.9679 29.9304 46.264 29.7461L46.8026 29.4111L44.8751 26.2262C43.8154 24.4745 42.8791 22.912 42.7955 22.7546C42.6058 22.3971 42.2967 22.1525 46.0967 25.3638C47.7576 26.7674 49.1662 27.9157 49.227 27.9157C49.4601 27.9157 50.2416 27.3369 50.1941 27.1996C50.0761 26.86 48.5265 19.2793 48.5668 19.2386C48.5914 19.214 49.4713 20.6276 50.522 22.3793C51.5728 24.131 52.4799 25.6389 52.5376 25.7301C52.6472 25.9023 53.3196 25.6398 53.5884 25.3199C53.6913 25.1974 48.8907 17.0052 48.6737 16.934C48.6263 16.9184 48.2778 17.0915 47.8994 17.3187ZM58.4239 18.493C57.5888 18.8495 56.9048 19.2042 56.9044 19.2811C56.9026 19.5182 57.2828 20.2312 57.4121 20.2317C57.5163 20.2321 60.5567 18.9908 60.6717 18.9005C60.7925 18.8061 60.2919 17.8238 60.1278 17.8336C60.0262 17.8399 59.2595 18.1364 58.4239 18.493ZM126.987 20.8673C124.886 24.1251 124.647 24.6087 124.64 25.6219C124.623 28.0897 128.241 30.2619 130.327 29.0358C131.103 28.5795 131.609 27.9466 133.36 25.2381C134.224 23.9037 134.997 22.7085 135.079 22.5823C135.215 22.373 135.18 22.3211 134.676 21.9892L134.125 21.6255L132.501 24.1269C129.591 28.6117 128.786 29.0465 126.73 27.2421C125.305 25.99 125.45 25.5901 129.663 19.18L129.864 18.875L129.349 18.5207C129.066 18.3257 128.81 18.1664 128.782 18.1664C128.753 18.1664 127.945 19.3818 126.987 20.8673ZM83.7421 22.2567C51.2024 24.5107 25.9289 48.7572 22.549 80.9632C22.243 83.8815 22.1772 89.3929 22.4488 89.3952C52.1695 89.6645 74.5149 92.3229 83.3749 96.6435L84.3268 97.1074L85.4661 96.5715C95.1541 92.0147 115.898 89.7101 150.381 89.3598L152.733 89.3361L152.715 86.6978C152.463 49.71 120.365 19.7199 83.7421 22.2567ZM136.838 25.6505C136.243 26.3604 134.829 28.0445 133.696 29.3937L131.638 31.8467L132.092 32.2305C132.342 32.4421 132.573 32.6157 132.605 32.6166C132.639 32.6175 133.747 31.3261 135.07 29.747C136.393 28.1676 137.487 26.916 137.501 26.9656C137.515 27.0153 137.303 29.0425 137.028 31.4714L136.53 35.8874L136.99 36.3172C137.243 36.5539 137.493 36.7476 137.545 36.7476C137.643 36.7476 143.848 29.3972 143.838 29.2935C143.834 29.2612 143.626 29.0698 143.373 28.8676L142.915 28.5008L142.54 28.9249C142.335 29.1584 141.246 30.4484 140.123 31.7913C138.999 33.1341 138.061 34.2144 138.038 34.1916C138.015 34.1688 138.203 32.2744 138.454 29.9819C139.018 24.8417 139.018 25.1974 138.459 24.733C138.212 24.5277 137.99 24.36 137.966 24.36C137.941 24.36 137.434 24.9406 136.838 25.6505ZM35.1155 25.8411L34.6042 26.283L36.0209 30.9132C36.8001 33.4598 37.4845 35.712 37.5422 35.9187L37.6464 36.294L38.1658 35.9209C38.4516 35.7161 38.7057 35.5152 38.7307 35.4749C38.7553 35.4347 38.5706 34.7906 38.3196 34.044C38.0687 33.2974 37.8634 32.6224 37.8634 32.5446C37.8634 32.3446 40.9356 29.9461 41.1064 30.0127C41.1838 30.0427 41.8083 30.405 42.494 30.8175L43.7411 31.5676L44.294 31.1467C44.5982 30.9154 44.85 30.6976 44.8536 30.6636C44.8599 30.601 35.786 25.3893 35.6818 25.396C35.6518 25.3978 35.3969 25.5982 35.1155 25.8411ZM38.5263 28.427C39.238 28.8578 39.845 29.2505 39.8759 29.3002C39.9286 29.386 37.6616 31.2375 37.5001 31.2406C37.4576 31.2411 37.1181 30.3259 36.7455 29.2062C36.3725 28.0861 36.0244 27.0721 35.9717 26.9526C35.9019 26.7929 36.058 26.8565 36.5545 27.1893C36.9276 27.4393 37.8151 27.9967 38.5263 28.427ZM29.6676 30.4341L29.2203 30.8922L29.4417 31.1489C30.1534 31.9756 35.8352 38.009 35.9019 38.009C35.9457 38.009 36.1712 37.8153 36.4024 37.5782L36.8234 37.1475L33.8948 33.9939C32.284 32.2596 30.7747 30.6461 30.5403 30.4086L30.1145 29.9765L29.6676 30.4341ZM145.282 31.3028L144.834 31.6781L145.952 32.8626L147.069 34.0467L146.001 35.084C145.413 35.6543 144.021 37.0039 142.906 38.0824L140.88 40.0439L141.358 40.51L141.836 40.9765L144.926 37.979L148.015 34.9816L149.146 36.1728L150.277 37.3644L150.696 36.9453L151.115 36.5261L150.32 35.6906C149.882 35.2312 148.67 33.9711 147.626 32.8912L145.728 30.9275L145.282 31.3028ZM26.2224 33.7013L25.6896 34.3253L27.7719 38.069C28.917 40.1284 29.8331 41.834 29.8081 41.8591C29.7826 41.8846 28.0103 41.1358 25.8699 40.1951L21.9782 38.4845L21.3184 39.1801C20.9556 39.5625 20.659 39.9079 20.659 39.9477C20.659 39.9875 21.8069 41.0517 23.2097 42.3122C24.6125 43.5728 26.2429 45.04 26.8329 45.5727L27.9052 46.5407L28.2921 46.0885C28.505 45.8398 28.6813 45.6067 28.6835 45.5705C28.6857 45.5338 27.346 44.2992 25.7057 42.8262C24.0654 41.3536 22.7234 40.1365 22.7234 40.1217C22.7234 40.1074 24.5002 40.858 26.6719 41.7906L30.6204 43.4855L30.9885 43.1062C31.4663 42.6133 31.5606 42.8575 29.3258 38.8084C28.2746 36.9032 27.4301 35.3291 27.4489 35.3103C27.4681 35.2911 28.7922 36.4528 30.3918 37.8909L33.3003 40.5059L33.7002 40.0635C33.9198 39.8202 34.0822 39.5769 34.0603 39.5227C33.995 39.3581 26.9832 33.0773 26.8651 33.0773C26.8052 33.0773 26.5158 33.3578 26.2224 33.7013ZM150.855 40.5534C149.701 44.3202 150.06 43.6935 148.167 45.2314L146.584 46.5175L146.978 46.9947C147.463 47.5821 147.275 47.6545 149.122 46.1672L150.672 44.9187L153.996 44.6682C155.824 44.53 157.357 44.4079 157.402 44.3958C157.447 44.3842 157.28 44.114 157.032 43.7955L156.579 43.2158L155.631 43.303C155.109 43.3509 153.917 43.4743 152.981 43.5768C152.046 43.6797 151.263 43.7463 151.242 43.7248C151.221 43.7038 151.56 42.6048 151.997 41.282C152.931 38.451 152.911 38.6684 152.3 37.9728L151.815 37.4203L150.855 40.5534ZM95.7236 43.5656C103.448 44.7814 109.879 48.8641 113.977 55.1565C114.594 56.1026 115.972 58.6997 115.972 58.9149C115.972 58.9654 115.586 58.5458 115.113 57.9831C107.133 48.4713 92.2027 46.9845 81.8683 54.6721L80.6248 55.5971L78.1806 55.3471C76.8364 55.2093 74.467 55.0076 72.9148 54.8989C71.1278 54.7736 70.0936 54.6564 70.0936 54.5795C70.0936 54.3607 72.0416 51.9976 73.0673 50.9719C78.8431 45.1961 87.6951 42.3024 95.7236 43.5656ZM18.2905 52.9266C18.0919 52.9861 17.7721 53.2143 17.5793 53.4334C16.3702 54.8107 17.9022 56.8572 19.5555 56.0726C21.4351 55.1811 20.2882 52.3286 18.2905 52.9266ZM155.136 54.2802C154.061 54.9355 154.052 56.5182 155.119 57.1686C156.201 57.8283 157.721 56.9883 157.721 55.73C157.721 54.4833 156.201 53.6307 155.136 54.2802ZM71.5272 56.4752C93.5769 57.2764 117.668 62.6639 124.059 68.2231L124.402 68.5224L123.714 68.2227C114.056 64.017 95.0356 60.5387 79.1437 60.0717L76.5524 59.9956L75.8841 61.0741C70.0766 70.4472 71.6024 81.9625 79.6809 89.7248L81.1271 91.1147L80.3917 90.7845C73.4435 87.6672 68.0708 81.0424 66.3638 73.4881C66.0319 72.0191 66.3517 72.2548 64.0565 71.786C52.0792 69.3396 45.3242 65.9172 44.9985 62.1311C44.6635 58.2305 55.6085 55.8968 71.5272 56.4752ZM65.5627 60.3418C61.0658 60.7636 56.8619 61.9204 55.5087 63.1085C53.6224 64.7649 55.3978 67.7226 59.3839 69.5642C60.8001 70.2182 65.3735 71.7301 65.9366 71.7301C65.9984 71.7301 66.0002 71.4617 65.9407 71.0703C65.5425 68.4419 66.0301 63.5245 66.9467 60.9269C67.0375 60.6706 67.1113 60.4156 67.1113 60.3606C67.1113 60.2627 66.4868 60.255 65.5627 60.3418ZM117.979 70.0012C127.428 71.3933 138.258 76.0704 148.349 83.1161C150.347 84.5109 150.623 84.7587 149.618 84.2532C139.542 79.186 125.795 76.7683 114.955 78.1581C103.776 79.5913 93.1613 85.0486 85.6732 93.2126C84.533 94.4561 84.5424 94.4678 85.183 92.598C90.0296 78.447 98.2236 70.9527 110.18 69.7355C111.468 69.6044 116.436 69.7735 117.979 70.0012ZM123.6 82.9735C130.496 83.3103 137.323 84.3253 144.073 86.017C146.602 86.6509 150.234 87.724 149.062 87.4914C133.377 84.3754 109.605 87.2413 86.2981 95.0587L84.4382 95.6827L83.3158 95.1897C72.3333 90.3641 54.5278 87.6309 33.9994 87.6193C30.1395 87.6175 27.0682 87.5835 27.1751 87.5442C27.5746 87.3965 32.271 86.6352 34.4799 86.3601C54.0326 83.9231 71.4744 86.5838 82.869 93.7409C84.635 94.8502 84.2024 94.8668 85.667 93.6348C94.8195 85.9347 108.056 82.2144 123.6 82.9735ZM151.701 90.6919C149.884 90.8794 115.923 94.5738 100.297 96.2843L84.3357 98.032L70.5337 96.5201C59.964 95.3624 30.6325 92.1663 23.2539 91.3683L22.3513 91.2708L22.4282 92.368C24.4331 120.876 45.7102 145.289 73.7066 151.206C112.563 159.418 149.363 132.011 152.569 92.4718C152.734 90.4334 152.805 90.5783 151.701 90.6919ZM41.9944 104.677C41.9425 104.882 41.8682 105.191 41.8297 105.365C41.7626 105.663 41.7233 105.68 41.1225 105.68C40.5705 105.68 40.494 105.654 40.5441 105.48C40.5764 105.369 40.6591 105.059 40.7284 104.791L40.8546 104.304H41.4714H42.0887L41.9944 104.677ZM51.8832 104.484C51.919 104.519 51.9069 104.713 51.8564 104.914C51.8058 105.115 51.7325 105.421 51.6936 105.594C51.6283 105.885 51.5795 105.91 51.0704 105.91C50.4013 105.91 50.3632 105.878 50.4804 105.415C50.531 105.214 50.6043 104.908 50.6433 104.734C50.7112 104.431 51.6426 104.243 51.8832 104.484ZM104.387 105.709C104.387 105.788 104.283 106.281 104.158 106.806C103.841 108.128 103.83 108.089 104.505 108.089C105.074 108.089 105.08 108.092 105.005 108.404C104.852 109.045 104.763 109.121 104.188 109.091L103.651 109.064L103.179 111.129C102.511 114.044 102.532 113.902 102.748 114.118C102.888 114.257 103.051 114.287 103.381 114.234L103.825 114.164L103.75 114.596C103.595 115.477 102.378 115.605 101.549 114.828C101.191 114.492 101.213 114.241 101.848 111.444L102.402 109.006H101.911H101.42L101.559 108.527C101.692 108.069 101.719 108.046 102.154 108.039L102.61 108.032L102.817 107.172C103.034 106.266 104.391 105.003 104.387 105.709ZM120.211 105.881C120.208 105.992 119.728 108.172 119.144 110.727L118.083 115.372L117.477 115.407C116.892 115.441 116.873 115.433 116.947 115.178C116.988 115.032 117.051 114.814 117.085 114.691C117.134 114.521 117.037 114.564 116.676 114.874C114.744 116.528 112.452 115.026 112.686 112.259C112.96 109.024 115.928 106.985 117.733 108.791C117.981 109.039 118.196 109.227 118.211 109.21C118.225 109.193 118.401 108.456 118.6 107.573C118.799 106.69 118.984 105.903 119.012 105.824C119.097 105.58 120.217 105.633 120.211 105.881ZM138.382 107.296C138.232 107.932 138.109 108.5 138.109 108.558C138.109 108.616 138.367 108.663 138.682 108.663C139.312 108.663 139.305 108.653 139.137 109.259C139.022 109.672 139.003 109.684 138.421 109.718L137.824 109.752L137.339 111.874C136.67 114.794 136.699 115.021 137.717 114.826C138.032 114.766 138.036 115.586 137.722 115.807C137.107 116.24 135.47 115.54 135.47 114.844C135.47 114.635 136.414 110.296 136.572 109.781C136.623 109.613 136.558 109.58 136.167 109.58C135.669 109.58 135.662 109.57 135.772 109.021C135.839 108.687 135.877 108.663 136.33 108.663H136.816L137.032 107.78C137.238 106.939 137.955 106.182 138.583 106.144C138.623 106.141 138.532 106.66 138.382 107.296ZM35.7203 106.835C35.9609 106.902 36.3613 107.16 36.6091 107.408C37.1615 107.96 37.1383 107.961 37.2326 107.401L37.31 106.942H37.8737C38.1836 106.942 38.4368 106.994 38.4368 107.059C38.4368 107.287 36.9401 113.781 36.7111 114.546C36.1296 116.486 33.8684 117.407 31.974 116.475C31.006 115.999 30.4723 114.381 31.3401 114.555C31.5374 114.594 31.821 114.627 31.9708 114.627C32.1632 114.627 32.2433 114.691 32.2433 114.847C32.2433 115.44 32.7156 115.774 33.5543 115.774C34.704 115.774 35.2367 115.317 35.5646 114.053C35.638 113.769 35.7247 113.445 35.7574 113.333C35.803 113.176 35.6912 113.216 35.2823 113.504C34.0853 114.348 32.3457 113.922 31.6761 112.622C30.2764 109.902 32.9558 106.068 35.7203 106.835ZM41.4245 107.028C41.4276 107.075 41.0791 108.675 40.6502 110.583L39.8709 114.053L39.2684 114.053C38.9038 114.053 38.6663 114.003 38.6663 113.926C38.6663 113.783 40.129 107.309 40.2118 107.085C40.269 106.931 41.4151 106.877 41.4245 107.028ZM43.6705 107.101C43.6883 107.117 44.2457 111.327 44.3544 112.267L44.4327 112.947L44.659 112.496C44.7838 112.249 45.53 110.923 46.3177 109.551L47.75 107.057H48.3695C49.172 107.057 49.2892 106.759 46.9421 110.686L44.8957 114.11L44.1898 114.145C43.8015 114.164 43.4835 114.164 43.483 114.145C43.483 114.126 43.2509 112.539 42.9668 110.618C42.6832 108.697 42.4515 107.087 42.4515 107.039C42.4515 106.974 43.5899 107.032 43.6705 107.101ZM57.6975 107.377C58.6198 108.066 58.6382 108.61 57.85 111.989L57.302 114.34L56.7013 114.375C55.9663 114.417 55.9668 114.708 56.6964 111.459C57.3673 108.47 57.3584 108.299 56.521 108.142C54.9348 107.845 54.042 108.971 53.29 112.218L52.8248 114.225L52.2259 114.26C51.4847 114.303 51.4686 114.67 52.3811 110.663C53.2592 106.808 53.116 107.172 53.7557 107.172C54.3086 107.172 54.3211 107.194 54.1614 107.882L54.063 108.306L54.6767 107.842C55.7176 107.056 57.0023 106.858 57.6975 107.377ZM51.2283 107.601C51.1872 107.838 50.8338 109.425 50.4433 111.129L49.7334 114.225L49.1318 114.26C48.8012 114.279 48.5279 114.253 48.5248 114.203C48.5221 114.152 48.8705 112.549 49.2991 110.641L50.0787 107.172L50.6911 107.172H51.303L51.2283 107.601ZM63.7144 107.296C63.9613 107.365 64.4019 107.647 64.7043 107.93L65.2491 108.439L65.3269 107.92L65.4048 107.401H65.9715C66.6734 107.401 66.6966 107.014 65.7421 111.197C64.4497 116.858 64.2162 117.207 61.7207 117.207C59.9341 117.207 59.0842 116.652 59.0828 115.484L59.0824 115.022L59.6777 115.082C60.2329 115.139 60.2794 115.168 60.368 115.51C60.5048 116.041 60.8475 116.232 61.6598 116.232C62.8962 116.232 63.3373 115.837 63.7094 114.397C63.9089 113.626 63.9121 113.63 63.3815 113.99C61.9264 114.977 60.1027 114.338 59.6062 112.666C58.7634 109.828 61.2282 106.606 63.7144 107.296ZM75.6121 107.517C79.0364 108.468 77.7691 114.439 74.0617 114.822C71.9204 115.043 70.5427 113.452 70.8893 111.159C71.2839 108.551 73.4158 106.907 75.6121 107.517ZM80.9902 107.716C80.9907 107.763 80.7223 108.998 80.394 110.459C79.6581 113.737 79.7386 114.101 81.1531 113.889C82.4946 113.687 83.1311 112.684 83.7967 109.724L84.2418 107.745H84.8524C85.2671 107.745 85.4612 107.791 85.4572 107.888C85.4545 107.967 85.1033 109.554 84.6779 111.415L83.9036 114.799L83.2921 114.834C82.7894 114.863 82.6923 114.839 82.746 114.699C82.7818 114.605 82.8466 114.331 82.8896 114.09L82.9678 113.652L82.5809 114.012C81.0618 115.427 78.8802 115.166 78.6163 113.537C78.5725 113.267 78.7519 112.224 79.1594 110.382L79.7682 107.63H80.3788C80.7147 107.63 80.9898 107.669 80.9902 107.716ZM90.8035 107.798L91.2043 107.966L91.0187 108.4C90.9162 108.639 90.8066 108.898 90.7744 108.976C90.7306 109.082 90.6572 109.086 90.4814 108.992C89.1507 108.279 88.1084 109.762 87.2464 113.595L86.9499 114.913L86.3782 114.874C86.0409 114.85 85.8096 114.78 85.8132 114.702C85.8168 114.629 86.1693 113.047 86.5965 111.186L87.373 107.802L87.9232 107.767L88.473 107.731L88.3956 108.168C88.3531 108.408 88.2878 108.708 88.2516 108.835C88.2095 108.978 88.3992 108.847 88.7597 108.482C89.5327 107.7 90.1088 107.508 90.8035 107.798ZM34.1269 107.961C32.5242 108.938 32.0523 112.042 33.4005 112.739C35.5655 113.859 37.8517 109.369 35.8106 108.005C35.328 107.683 34.614 107.664 34.1269 107.961ZM99.0928 107.996C99.876 108.235 100.603 109.134 100.603 109.863C100.603 110.418 99.5437 110.289 99.3151 109.707C98.8933 108.633 97.0118 108.433 96.5645 109.414C96.3453 109.896 96.607 110.159 98.0205 110.876C99.796 111.776 100.307 112.45 100.021 113.511C99.3236 116.101 94.3127 115.646 94.2971 112.992L94.2944 112.562H94.9103H95.5258L95.5885 113.03C95.7884 114.519 98.6235 114.774 98.7465 113.314C98.7957 112.731 98.5721 112.508 97.3912 111.961C95.809 111.227 95.3268 110.741 95.3268 109.88C95.3268 108.282 97.1085 107.391 99.0928 107.996ZM107.599 108.133C107.599 108.157 107.341 109.314 107.026 110.705C106.318 113.825 106.312 113.969 106.875 114.266C107.257 114.466 107.712 114.423 108.358 114.122C109.487 113.596 109.758 113.01 110.58 109.322L110.83 108.204H111.463C112.063 108.204 112.094 108.217 112.034 108.462C111.998 108.603 111.655 110.113 111.27 111.817C110.886 113.52 110.544 115.004 110.511 115.114C110.394 115.508 109.275 115.396 109.372 115C109.613 114.011 109.636 114.068 109.164 114.483C107.837 115.647 106.094 115.705 105.424 114.606C105.081 114.044 105.127 113.519 105.764 110.727C106.079 109.344 106.338 108.185 106.338 108.151C106.338 108.117 106.622 108.089 106.969 108.089C107.315 108.089 107.599 108.109 107.599 108.133ZM62.2713 108.438C60.8784 109.173 60.2333 111.776 61.1535 112.946C62.3621 114.482 64.8796 112.291 64.6797 109.877C64.5678 108.532 63.407 107.838 62.2713 108.438ZM125.32 108.544C126.335 108.981 126.87 109.932 126.867 111.292C126.864 112.391 127.037 112.324 124.11 112.359L121.535 112.39L121.563 112.94C121.665 114.91 123.867 115.269 124.976 113.495C125.196 113.142 125.228 113.13 125.777 113.197C126.503 113.284 126.491 113.263 126.139 113.865C124.218 117.141 119.699 115.706 120.311 112.013C120.777 109.203 123.106 107.59 125.32 108.544ZM73.8211 108.566C71.5666 109.808 71.5093 113.821 73.7464 113.823C75.9324 113.825 77.3647 109.755 75.5647 108.658C75.1545 108.408 74.1999 108.357 73.8211 108.566ZM133.518 108.634C134.089 108.921 134.439 109.496 134.436 110.142C134.433 110.715 133.365 115.517 133.204 115.677C133.022 115.859 132.018 115.651 132.077 115.442C132.335 114.529 133.177 110.538 133.177 110.224C133.177 108.817 130.828 109.382 130.009 110.987C129.8 111.396 128.818 115.199 128.818 115.598C128.818 115.632 128.534 115.659 128.187 115.659C127.841 115.659 127.557 115.638 127.557 115.612C127.557 115.539 129.05 108.971 129.117 108.748C129.164 108.592 129.305 108.548 129.752 108.548C130.244 108.548 130.316 108.576 130.265 108.748C130.232 108.859 130.169 109.102 130.125 109.288L130.044 109.626L130.622 109.202C131.699 108.411 132.689 108.217 133.518 108.634ZM144.245 108.947C144.911 109.275 145.328 109.824 145.417 110.491L145.48 110.956H144.834C144.238 110.956 144.188 110.936 144.188 110.695C144.188 109.745 142.487 109.192 141.673 109.877C140.96 110.477 141.232 110.86 142.996 111.74C144.602 112.542 144.971 113.018 144.845 114.131C144.551 116.745 139.382 116.615 139.164 113.987L139.113 113.365L139.586 113.348C139.846 113.338 140.123 113.325 140.202 113.319C140.286 113.312 140.371 113.504 140.409 113.785C140.616 115.34 143.614 115.556 143.614 114.016C143.614 113.511 143.325 113.254 142.113 112.686C140.565 111.961 140.173 111.542 140.173 110.612C140.173 108.933 142.383 108.029 144.245 108.947ZM115.707 109.286C114.103 109.863 113.292 113.207 114.507 114.229C115.778 115.299 117.684 113.465 117.729 111.129C117.758 109.63 116.907 108.854 115.707 109.286ZM123.255 109.45C122.611 109.742 121.594 111.019 121.835 111.232C121.859 111.254 122.75 111.297 123.814 111.328L125.75 111.384L125.68 110.799C125.529 109.522 124.435 108.913 123.255 109.45ZM67.6848 118.504C67.6848 118.609 67.0187 121.568 66.9212 121.896C66.8724 122.059 66.9901 122.01 67.4056 121.693C69.0889 120.407 71.1237 120.945 71.1251 122.676C71.1255 123.104 70.7122 125.129 70.035 128.018C69.9813 128.247 69.9035 128.276 69.338 128.276C68.7856 128.276 68.7096 128.249 68.7619 128.075C68.9869 127.325 69.8636 123.172 69.8623 122.864C69.8592 122.177 69.4177 121.908 68.5588 122.068C67.1144 122.338 66.6644 123.046 65.9661 126.154C65.7675 127.037 65.5792 127.85 65.5475 127.96C65.5018 128.12 65.3614 128.161 64.8546 128.161C64.3952 128.161 64.2337 128.121 64.2708 128.018C64.2994 127.939 64.804 125.745 65.3931 123.143L66.4636 118.412H67.0742C67.4101 118.412 67.6848 118.453 67.6848 118.504ZM63.8995 118.637C63.8995 118.697 63.7967 119.19 63.6705 119.73C63.3529 121.091 63.3426 121.05 64.0024 121.05H64.5638L64.4761 121.437C64.3393 122.045 64.2681 122.102 63.6898 122.061L63.1597 122.025L62.6878 124.089C62.0248 126.99 62.0432 126.861 62.261 127.079C62.3974 127.216 62.5737 127.251 62.8989 127.208C63.3158 127.152 63.3431 127.165 63.2813 127.396C63.2447 127.533 63.2138 127.706 63.2134 127.78C63.2062 128.395 61.7265 128.454 61.0913 127.866C60.6887 127.492 60.7155 127.146 61.3624 124.347L61.9126 121.967H61.4272H60.9419L61.0568 121.514C61.1651 121.089 61.2 121.059 61.6419 121.027L62.1116 120.992L62.3241 120.132C62.5406 119.256 63.8995 117.966 63.8995 118.637ZM108.631 119.151C108.631 119.313 106.456 128.751 106.397 128.847C106.322 128.967 105.191 129.016 105.191 128.899C105.191 128.864 105.681 126.671 106.28 124.026C106.88 121.381 107.37 119.191 107.37 119.158C107.37 119.126 107.654 119.1 108.001 119.1C108.348 119.1 108.631 119.123 108.631 119.151ZM116.202 119.337C116.202 119.456 114.183 128.468 114.065 128.878C114.02 129.034 113.882 129.079 113.441 129.079C112.826 129.079 112.826 129.078 112.982 128.533C113.113 128.076 113.131 128.075 112.519 128.56C110.371 130.263 108.1 128.231 108.735 125.176C109.336 122.283 112.183 120.722 113.73 122.435C113.988 122.721 114.161 122.836 114.193 122.745C114.221 122.664 114.401 121.901 114.594 121.05C114.786 120.198 114.967 119.437 114.995 119.358C115.06 119.179 116.202 119.159 116.202 119.337ZM77.2618 121.382C78.3864 121.879 78.984 123.251 78.7344 124.762L78.6615 125.205L76.0407 125.16L73.4198 125.115V125.609C73.4198 127.584 75.6059 128.15 76.7823 126.481C77.146 125.965 77.2918 125.913 77.9887 126.052L78.3426 126.123L78.1131 126.574C76.8069 129.133 73.0879 129.15 72.3203 126.6C71.3599 123.408 74.454 120.142 77.2618 121.382ZM85.3122 123.057C85.3874 123.94 85.4827 125.171 85.5247 125.793L85.6007 126.922L85.9756 126.022C86.1814 125.527 86.741 124.308 87.2187 123.315L88.0869 121.509H88.7673H89.4477L89.5184 122.741C89.5573 123.42 89.6226 124.634 89.6637 125.44L89.738 126.905L90.2784 125.726C90.5754 125.078 91.1623 123.864 91.5823 123.028L92.3463 121.509H92.9189C93.6722 121.509 93.7482 121.271 91.7424 125.196L89.9934 128.619L89.3493 128.619L88.7056 128.62L88.6313 127.157C88.5902 126.353 88.5253 125.142 88.4864 124.466L88.4162 123.238L87.6821 124.811C87.2782 125.675 86.7043 126.873 86.4059 127.473L85.8642 128.562L85.2335 128.522C84.8864 128.5 84.5965 128.474 84.5894 128.465C84.5822 128.455 84.4641 127.106 84.3268 125.466C84.189 123.825 84.0459 122.235 84.0087 121.932L83.9403 121.381L84.5581 121.416L85.1762 121.451L85.3122 123.057ZM98.3176 121.64C101.125 122.481 100.598 127.499 97.5813 128.645C95.516 129.43 93.5702 128.323 93.4056 126.269C93.16 123.211 95.669 120.846 98.3176 121.64ZM106.023 121.836C106.235 122.048 105.705 123.05 105.445 122.931C104.137 122.329 103.086 123.676 102.35 126.899L101.918 128.792L101.318 128.826C100.988 128.846 100.717 128.844 100.717 128.822C100.717 128.788 102.111 122.643 102.266 121.996C102.32 121.772 102.402 121.738 102.889 121.738H103.45L103.299 122.385L103.149 123.033L103.567 122.563C104.349 121.688 105.526 121.339 106.023 121.836ZM75.061 122.32C74.5435 122.576 74.0814 123.104 73.8135 123.745L73.6457 124.146H75.5974H77.5486L77.5481 123.659C77.5472 122.377 76.3014 121.706 75.061 122.32ZM96.4098 122.636C94.8312 123.375 94.0604 126.263 95.1371 127.405C96.4898 128.839 98.7291 127.186 98.8517 124.663C98.9375 122.899 97.8242 121.975 96.4098 122.636ZM111.442 122.985C109.84 123.979 109.322 127.147 110.63 127.945C111.992 128.776 113.679 126.932 113.678 124.613C113.677 123.132 112.539 122.303 111.442 122.985ZM29.3308 136.275L25.2544 140.491L25.8184 141.057L26.3825 141.624L28.0398 139.91L29.6971 138.197L30.9416 139.407C33.91 142.293 35.4362 142.642 37.3566 140.872C39.4272 138.963 38.9714 137.394 35.3329 133.906L33.4067 132.059L29.3308 136.275ZM35.2537 135.824C36.962 137.56 37.1096 137.829 36.8408 138.726C36.4633 139.987 35.1065 140.654 33.9936 140.126C33.6018 139.94 30.8539 137.451 30.7671 137.203C30.7273 137.09 33.4779 134.24 33.6268 134.24C33.6639 134.24 34.3958 134.953 35.2537 135.824ZM141.806 134.356C139.11 134.917 136.927 138.214 137.971 140.147C139.044 142.134 140.428 142.252 143.729 140.634C146.331 139.359 147.225 139.32 147.813 140.457C149.039 142.828 144.78 145.682 142.582 143.962L142.295 143.737L141.809 144.289L141.323 144.84L141.615 145.145C144.542 148.199 151.062 143.43 149.094 139.674C148.026 137.635 146.47 137.512 143.078 139.199C140.779 140.342 140.303 140.432 139.663 139.845C138.867 139.115 138.986 138.084 139.983 137.065C141.37 135.648 142.436 135.438 143.812 136.309C144.079 136.478 144.991 135.796 144.991 135.427C144.991 134.797 142.962 134.115 141.806 134.356ZM40.015 139.659C34.2294 146.566 33.7521 147.665 35.5047 150.046C37.4505 152.688 40.418 153.174 42.4703 151.185C43.0558 150.617 47.733 144.929 47.7227 144.796C47.7169 144.723 46.629 143.875 46.54 143.875C46.506 143.875 45.4002 145.204 44.0824 146.828C41.5323 149.972 41.0935 150.43 40.2914 150.785C38.7607 151.462 36.2579 149.618 36.2579 147.812C36.2579 146.847 36.4167 146.607 39.968 142.223L41.7855 139.979L41.4106 139.661C40.5294 138.916 40.6376 138.916 40.015 139.659ZM130.342 142.961L129.744 143.42L133.21 148.02C135.116 150.55 136.736 152.643 136.809 152.672C136.909 152.71 141.987 149.029 142.623 148.458C142.721 148.369 142.027 147.328 141.864 147.32C141.816 147.318 140.779 148.064 139.56 148.978C138.341 149.893 137.296 150.639 137.239 150.636C137.181 150.633 135.766 148.801 134.095 146.565C132.422 144.329 131.029 142.5 130.997 142.501C130.966 142.501 130.671 142.708 130.342 142.961ZM45.6145 150.238C43.9384 152.919 42.5539 155.17 42.5378 155.24C42.4538 155.611 47.4646 158.473 48.5462 158.673C51.1608 159.155 53.197 156.134 51.7244 153.958L51.524 153.662L52.2353 153.53C54.5671 153.096 55.3267 150.288 53.5723 148.586C53.2055 148.23 50.4992 146.448 48.7972 145.442C48.7086 145.39 47.6113 147.043 45.6145 150.238ZM126.123 145.843C121.408 146.73 120.071 152.418 123.713 156.1C127.71 160.143 134.413 156.505 133.115 150.999C132.3 147.538 129.212 145.262 126.123 145.843ZM128.657 147.576C131.61 149.088 132.673 153.246 130.62 155.252C128.24 157.576 125.091 156.462 123.424 152.706C121.977 149.443 125.52 145.969 128.657 147.576ZM50.2809 148.018C52.5341 149.421 53.0038 149.871 53.0038 150.629C53.0038 151.815 51.9606 152.668 50.8687 152.374C50.357 152.236 47.4279 150.458 47.4651 150.307C47.5013 150.161 49.2306 147.43 49.2874 147.43C49.3138 147.43 49.7611 147.695 50.2809 148.018ZM54.4374 155.589C53.0494 158.436 51.9007 160.797 51.8841 160.839C51.8515 160.92 52.4544 161.229 56.0545 162.975L58.4749 164.148L58.7791 163.527L59.0837 162.907L56.5398 161.648C55.1406 160.955 53.9767 160.37 53.9539 160.347C53.9306 160.324 54.9214 158.226 56.156 155.686C57.3902 153.146 58.3859 151.056 58.3684 151.041C58.2736 150.958 57.1262 150.413 57.0502 150.413C57.001 150.414 55.825 152.743 54.4374 155.589ZM115.831 151.443C111.489 152.215 109.709 156.573 112.093 160.594C114.074 163.934 118.306 164.492 121.021 161.771C124.806 157.978 121.055 150.515 115.831 151.443ZM48.714 152.884C50.6276 154.123 51.0561 154.9 50.4804 156.089C49.7356 157.627 48.7359 157.597 46.09 155.954L44.5101 154.974L44.7409 154.614C44.8675 154.416 45.3452 153.651 45.8024 152.914L46.6335 151.573L47.037 151.817C47.2593 151.951 48.0135 152.431 48.714 152.884ZM118.095 153.154C120.86 154.377 121.927 159.152 119.854 161.025C117.235 163.391 113.737 161.791 112.699 157.753C111.865 154.508 115.04 151.802 118.095 153.154ZM64.4211 154.446C63.8172 155.956 60.4588 164.768 60.4588 164.843C60.4588 164.928 61.8419 165.475 61.8956 165.411C61.9685 165.324 66.0842 154.509 66.0556 154.48C65.9939 154.418 64.8107 153.968 64.711 153.968C64.6569 153.968 64.5267 154.183 64.4211 154.446ZM108.058 154.741C107.711 154.841 107.409 154.936 107.386 154.954C107.364 154.971 107.641 156 108.001 157.241C108.36 158.481 108.611 159.534 108.557 159.581C108.453 159.672 103.153 161.194 102.94 161.194C102.837 161.194 102.4 159.807 101.616 156.988L101.515 156.624L100.858 156.805C100.497 156.904 100.158 157.023 100.106 157.069C100.03 157.135 101.418 162.166 103.02 167.634L103.244 168.397L103.943 168.186C104.327 168.07 104.665 167.951 104.695 167.922C104.723 167.893 104.405 166.697 103.987 165.264C103.57 163.832 103.243 162.646 103.263 162.628C103.34 162.56 109.021 160.971 109.057 161.008C109.079 161.029 109.424 162.192 109.825 163.592C110.226 164.992 110.579 166.162 110.611 166.193C110.71 166.292 112.073 165.863 112.068 165.734C112.057 165.415 108.879 154.606 108.79 154.585C108.735 154.572 108.405 154.642 108.058 154.741ZM69.525 156.157C66.6913 156.713 64.6752 160.384 65.2697 163.907C66.023 168.374 72.0931 169.767 74.5618 166.04C75.0105 165.362 75.0217 165.4 74.2514 164.982L73.5916 164.624L73.4247 164.887C71.3009 168.24 66.7673 166.894 66.7673 162.911C66.7673 160.513 68.0417 158.122 69.6042 157.589C71.7258 156.866 73.9324 158.067 74.276 160.133L74.3574 160.62H75.1572H75.957L75.8778 160.076C75.4717 157.286 72.6486 155.546 69.525 156.157ZM94.2058 157.798C90.3513 158.772 88.9181 163.078 91.0911 167.156C93.1707 171.058 99.0852 170.634 100.484 166.482C100.841 165.423 100.808 165.094 100.345 165.092C100.14 165.091 99.7785 165.059 99.5419 165.02C99.1223 164.95 99.1116 164.958 99.1116 165.303C99.1116 168.711 93.9983 169.581 92.4653 166.435C91.0697 163.571 91.6024 160.479 93.6668 159.463C95.5509 158.536 97.0874 158.959 98.3185 160.743L98.5001 161.006L99.1786 160.737C99.5517 160.588 99.8765 160.452 99.8997 160.434C99.9923 160.363 99.3316 159.376 98.8803 158.911C97.8421 157.842 95.881 157.375 94.2058 157.798ZM83.3409 158.258C81.6706 158.672 80.7263 159.774 80.7263 161.308C80.7263 163.049 81.6304 163.813 84.7455 164.707C87.3444 165.452 87.8141 165.789 87.8141 166.907C87.8141 169.676 82.2946 169.442 81.6688 166.647L81.5208 165.985L81.0099 166.056C80.729 166.094 80.3962 166.125 80.2705 166.125C80.0616 166.125 80.0491 166.176 80.122 166.728C80.7478 171.455 89.3546 171.489 89.3614 166.764C89.364 164.882 88.4618 164.111 85.1445 163.159C82.5666 162.419 82.1756 162.134 82.2781 161.072C82.5004 158.757 87.0501 158.958 87.6396 161.308L87.7689 161.825L88.5199 161.786L89.2706 161.747L89.1914 161.217C88.8469 158.921 86.1568 157.561 83.3409 158.258Z" fill="white"/>
</svg>
